<?xml version="1.0" encoding="UTF-8" standalone="no"?>
<svg
   xmlns:dc="http://purl.org/dc/elements/1.1/"
   xmlns:cc="http://creativecommons.org/ns#"
   xmlns:rdf="http://www.w3.org/1999/02/22-rdf-syntax-ns#"
   xmlns:svg="http://www.w3.org/2000/svg"
   xmlns="http://www.w3.org/2000/svg"
   xmlns:xlink="http://www.w3.org/1999/xlink"
   xmlns:sodipodi="http://sodipodi.sourceforge.net/DTD/sodipodi-0.dtd"
   xmlns:inkscape="http://www.inkscape.org/namespaces/inkscape"
   version="1.1"
   viewBox="0 0 187.35434 187.35432"
   stroke-miterlimit="10"
   id="svg4791"
   sodipodi:docname="lowcologo-circle.svg"
   width="187.35434"
   height="187.35432"
   style="fill:none;stroke:none;stroke-linecap:square;stroke-miterlimit:10"
   inkscape:version="0.92.4 5da689c313, 2019-01-14">
  <metadata
     id="metadata4797">
    <rdf:RDF>
      <cc:Work
         rdf:about="">
        <dc:format>image/svg+xml</dc:format>
        <dc:type
           rdf:resource="http://purl.org/dc/dcmitype/StillImage" />
        <dc:title></dc:title>
      </cc:Work>
    </rdf:RDF>
  </metadata>
  <defs
     id="defs4795">
    <linearGradient
       inkscape:collect="always"
       xlink:href="#p.2"
       id="linearGradient4805"
       gradientUnits="userSpaceOnUse"
       gradientTransform="scale(13.317469)"
       x1="9.876318"
       y1="6.0134063"
       x2="9.8762693"
       y2="19.330875"
       spreadMethod="pad" />
    <defs
       id="defs4707">
      <filter
         filterUnits="userSpaceOnUse"
         id="shadowFilter-p.1">
        <feGaussianBlur
           id="feGaussianBlur4694"
           result="blur"
           stdDeviation="2.0"
           in="SourceAlpha" />
        <feComponentTransfer
           id="feComponentTransfer4704"
           in="blur"
           style="color-interpolation-filters:sRGB">
          <feFuncR
             id="feFuncR4696"
             intercept="0.0"
             slope="0"
             type="linear" />
          <feFuncG
             id="feFuncG4698"
             intercept="0.0"
             slope="0"
             type="linear" />
          <feFuncB
             id="feFuncB4700"
             intercept="0.0"
             slope="0"
             type="linear" />
          <feFuncA
             id="feFuncA4702"
             intercept="0"
             slope="0.5"
             type="linear" />
        </feComponentTransfer>
      </filter>
    </defs>
  </defs>
  <sodipodi:namedview
     pagecolor="#ffffff"
     bordercolor="#666666"
     borderopacity="1"
     objecttolerance="10"
     gridtolerance="10"
     guidetolerance="10"
     inkscape:pageopacity="0"
     inkscape:pageshadow="2"
     inkscape:window-width="1920"
     inkscape:window-height="1158"
     id="namedview4793"
     showgrid="false"
     fit-margin-top="5"
     fit-margin-left="5"
     fit-margin-right="5"
     fit-margin-bottom="5"
     inkscape:zoom="1.1827957"
     inkscape:cx="368.60511"
     inkscape:cy="137.33943"
     inkscape:window-x="0"
     inkscape:window-y="20"
     inkscape:window-maximized="0"
     inkscape:current-layer="svg4791" />
  <clipPath
     id="p.0">
    <path
       d="M 0,0 H 1209 V 330 H 0 Z"
       id="path4685"
       inkscape:connector-curvature="0"
       style="clip-rule:nonzero" />
  </clipPath>
  <g
     id="p.1"
     transform="translate(-126.52756,-75.08399)">
    <defs
       id="defs4714">
      <linearGradient
         y2="19.330875"
         x2="9.8762693"
         y1="6.0134063"
         x1="9.876318"
         spreadMethod="pad"
         gradientTransform="scale(13.317469)"
         gradientUnits="userSpaceOnUse"
         id="p.2">
        <stop
           id="stop4709"
           stop-color="#ffffff"
           offset="0.0" />
        <stop
           id="stop4711"
           stop-color="#efefef"
           offset="1.0" />
      </linearGradient>
    </defs>
    <path
       inkscape:connector-curvature="0"
       style="fill:url(#linearGradient4805);fill-rule:evenodd"
       id="path4716"
       d="m 131.52756,168.76115 v 0 c 0,-48.97504 39.70212,-88.67716 88.67717,-88.67716 v 0 c 23.51865,0 46.07402,9.342743 62.70421,25.97294 16.63022,16.63019 25.97296,39.18558 25.97296,62.70422 v 0 c 0,48.97505 -39.70212,88.67717 -88.67717,88.67717 v 0 c -48.97505,0 -88.67717,-39.70212 -88.67717,-88.67717 z" />
  </g>
  <path
     style="fill:#3c78d8;fill-rule:evenodd"
     inkscape:connector-curvature="0"
     id="path4719"
     d="m 90.79529,63.90814 h 5.76379 v 5.76378 h -5.76379 z" />
  <path
     style="fill-rule:evenodd;stroke:#3c78d8;stroke-width:1;stroke-linecap:butt;stroke-linejoin:round"
     inkscape:connector-curvature="0"
     id="path4721"
     d="m 90.79529,63.90814 h 5.76379 v 5.76378 h -5.76379 z" />
  <path
     style="fill:#ff9900;fill-rule:evenodd"
     inkscape:connector-curvature="0"
     id="path4723"
     d="m 91.75291,117.67643 h 5.76378 v 5.76378 h -5.76378 z" />
  <path
     style="fill-rule:evenodd;stroke:#ff9900;stroke-width:1;stroke-linecap:butt;stroke-linejoin:round"
     inkscape:connector-curvature="0"
     id="path4725"
     d="m 91.75291,117.67643 h 5.76378 v 5.76378 h -5.76378 z" />
  <path
     style="fill:#1c4587;fill-rule:evenodd"
     inkscape:connector-curvature="0"
     id="path4727"
     d="m 113.21679,69.68135 v 0 c 15.21193,-0.19102 29.88312,4.74829 40.74704,13.7182 10.86395,8.96993 17.01874,21.2258 17.09406,34.03888 l -56.99144,0.23758 z" />
  <path
     style="fill-rule:evenodd;stroke:#1c4587;stroke-width:2;stroke-linecap:butt;stroke-linejoin:round"
     inkscape:connector-curvature="0"
     id="path4729"
     d="m 113.21679,69.68135 v 0 c 15.21193,-0.19102 29.88312,4.74829 40.74704,13.7182 10.86395,8.96993 17.01874,21.2258 17.09406,34.03888 l -56.99144,0.23758 z" />
  <path
     style="fill:#ff9900;fill-rule:evenodd"
     inkscape:connector-curvature="0"
     id="path4731"
     d="m 69.67767,131.43586 v 0 c 0,-4.41837 3.58179,-8.00017 8.00015,-8.00017 h 31.99968 v 0 c 2.12178,0 4.15665,0.84288 5.65697,2.3432 1.50032,1.50032 2.3432,3.53519 2.3432,5.65697 v 31.99968 c 0,4.41837 -3.5818,8.00015 -8.00017,8.00015 H 77.67782 c -4.41836,0 -8.00015,-3.58178 -8.00015,-8.00015 z" />
  <path
     style="fill-rule:evenodd;stroke:#ff9900;stroke-width:2;stroke-linecap:butt;stroke-linejoin:round"
     inkscape:connector-curvature="0"
     id="path4733"
     d="m 69.67767,131.43586 v 0 c 0,-4.41837 3.58179,-8.00017 8.00015,-8.00017 h 31.99968 v 0 c 2.12178,0 4.15665,0.84288 5.65697,2.3432 1.50032,1.50032 2.3432,3.53519 2.3432,5.65697 v 31.99968 c 0,4.41837 -3.5818,8.00015 -8.00017,8.00015 H 77.67782 c -4.41836,0 -8.00015,-3.58178 -8.00015,-8.00015 z" />
  <path
     style="fill:#1c4587;fill-rule:evenodd"
     inkscape:connector-curvature="0"
     id="path4735"
     d="m 15.91432,77.67617 v 0 c 0,-4.41837 3.5818,-8.00017 8.00017,-8.00017 h 31.99968 v 0 c 2.12178,0 4.15664,0.84288 5.65697,2.3432 1.50032,1.50032 2.34318,3.53519 2.34318,5.65697 v 31.99968 c 0,4.41837 -3.58179,8.00015 -8.00015,8.00015 H 23.91449 c -4.41837,0 -8.00017,-3.58178 -8.00017,-8.00015 z" />
  <path
     style="fill-rule:evenodd;stroke:#1c4587;stroke-width:2;stroke-linecap:butt;stroke-linejoin:round"
     inkscape:connector-curvature="0"
     id="path4737"
     d="m 15.91432,77.67617 v 0 c 0,-4.41837 3.5818,-8.00017 8.00017,-8.00017 h 31.99968 v 0 c 2.12178,0 4.15664,0.84288 5.65697,2.3432 1.50032,1.50032 2.34318,3.53519 2.34318,5.65697 v 31.99968 c 0,4.41837 -3.58179,8.00015 -8.00015,8.00015 H 23.91449 c -4.41837,0 -8.00017,-3.58178 -8.00017,-8.00015 z" />
  <path
     style="fill:#1c4587;fill-rule:evenodd"
     inkscape:connector-curvature="0"
     id="path4739"
     d="m 69.67456,77.67733 v 0 c 0,-4.41838 3.58179,-8.00017 8.00015,-8.00017 h 38.51937 c 2.12178,0 4.15664,0.84287 5.65696,2.3432 1.50032,1.50032 2.3432,3.53519 2.3432,5.65697 v 31.99968 c 0,4.41837 -3.5818,8.00015 -8.00016,8.00015 H 77.67471 c -4.41836,0 -8.00015,-3.58178 -8.00015,-8.00015 z" />
  <path
     style="fill-rule:evenodd;stroke:#1c4587;stroke-width:2;stroke-linecap:butt;stroke-linejoin:round"
     inkscape:connector-curvature="0"
     id="path4741"
     d="m 69.67456,77.67733 v 0 c 0,-4.41838 3.58179,-8.00017 8.00015,-8.00017 h 38.51937 c 2.12178,0 4.15664,0.84287 5.65696,2.3432 1.50032,1.50032 2.3432,3.53519 2.3432,5.65697 v 31.99968 c 0,4.41837 -3.5818,8.00015 -8.00016,8.00015 H 77.67471 c -4.41836,0 -8.00015,-3.58178 -8.00015,-8.00015 z" />
  <path
     style="fill:#3c78d8;fill-rule:evenodd"
     inkscape:connector-curvature="0"
     id="path4743"
     d="m 69.67717,23.91617 v 0 c 0,-4.418366 3.58179,-8.00016 8.00015,-8.00016 H 109.677 v 0 c 2.12178,0 4.15665,0.842873 5.65697,2.343193 1.50032,1.50032 2.3432,3.535194 2.3432,5.656967 v 31.99969 c 0,4.41836 -3.5818,8.00015 -8.00017,8.00015 H 77.67732 c -4.41836,0 -8.00015,-3.58179 -8.00015,-8.00015 z" />
  <path
     style="fill-rule:evenodd;stroke:#3c78d8;stroke-width:2;stroke-linecap:butt;stroke-linejoin:round"
     inkscape:connector-curvature="0"
     id="path4745"
     d="m 69.67717,23.91617 v 0 c 0,-4.418366 3.58179,-8.00016 8.00015,-8.00016 H 109.677 v 0 c 2.12178,0 4.15665,0.842873 5.65697,2.343193 1.50032,1.50032 2.3432,3.535194 2.3432,5.656967 v 31.99969 c 0,4.41836 -3.5818,8.00015 -8.00017,8.00015 H 77.67732 c -4.41836,0 -8.00015,-3.58179 -8.00015,-8.00015 z" />
  <path
     style="fill:#1c4587;fill-rule:evenodd"
     inkscape:connector-curvature="0"
     id="path4747"
     d="M 63.91432,90.79322 H 69.6781 V 96.557 h -5.76378 z" />
  <path
     style="fill-rule:evenodd;stroke:#1c4587;stroke-width:1;stroke-linecap:butt;stroke-linejoin:round"
     inkscape:connector-curvature="0"
     id="path4749"
     d="M 63.91432,90.79322 H 69.6781 V 96.557 h -5.76378 z" />
  <path
     style="fill:#ffffff;fill-rule:evenodd"
     inkscape:connector-curvature="0"
     id="path4751"
     d="m 80.37065,93.67562 v 0 c 0,-3.56593 2.94716,-6.4567 6.58267,-6.4567 v 0 c 1.74584,0 3.42017,0.68026 4.65466,1.89112 1.23449,1.21087 1.92801,2.85315 1.92801,4.56558 v 0 c 0,3.56593 -2.94715,6.4567 -6.58267,6.4567 v 0 c -3.63551,0 -6.58267,-2.89077 -6.58267,-6.4567 z" />
  <path
     style="fill:#ffffff;fill-rule:evenodd"
     inkscape:connector-curvature="0"
     id="path4753"
     d="m 102.28958,93.67562 v 0 c 0,-3.56593 2.94716,-6.4567 6.58267,-6.4567 v 0 c 1.74584,0 3.42017,0.68026 4.65465,1.89112 1.2345,1.21087 1.92802,2.85315 1.92802,4.56558 v 0 c 0,3.56593 -2.94715,6.4567 -6.58267,6.4567 v 0 c -3.63551,0 -6.58267,-2.89077 -6.58267,-6.4567 z" />
  <path
     style="fill:#ffffff;fill-rule:evenodd"
     inkscape:connector-curvature="0"
     id="path4755"
     d="m 124.20849,93.67562 v 0 c 0,-3.56593 2.94717,-6.4567 6.58267,-6.4567 v 0 c 1.74585,0 3.42017,0.68026 4.65466,1.89112 1.2345,1.21087 1.92804,2.85315 1.92804,4.56558 v 0 c 0,3.56593 -2.94717,6.4567 -6.5827,6.4567 v 0 c -3.6355,0 -6.58267,-2.89077 -6.58267,-6.4567 z" />
  <path
     style="fill:#cc0000;fill-rule:evenodd"
     inkscape:connector-curvature="0"
     id="path4757"
     d="m 45.43832,49.2389 v 0 c 0,-1.62064 1.3138,-2.93444 2.93443,-2.93444 h 11.83191 v 0 c 0.77826,0 1.52464,0.30917 2.07497,0.85948 0.55031,0.55031 0.85948,1.2967 0.85948,2.07496 v 11.73741 c 0,1.62065 -1.3138,2.93445 -2.93445,2.93445 H 48.37275 c -1.62063,0 -2.93443,-1.3138 -2.93443,-2.93445 z" />
  <path
     style="fill-rule:evenodd;stroke:#cc0000;stroke-width:2;stroke-linecap:butt;stroke-linejoin:round"
     inkscape:connector-curvature="0"
     id="path4759"
     d="m 45.43832,49.2389 v 0 c 0,-1.62064 1.3138,-2.93444 2.93443,-2.93444 h 11.83191 v 0 c 0.77826,0 1.52464,0.30917 2.07497,0.85948 0.55031,0.55031 0.85948,1.2967 0.85948,2.07496 v 11.73741 c 0,1.62065 -1.3138,2.93445 -2.93445,2.93445 H 48.37275 c -1.62063,0 -2.93443,-1.3138 -2.93443,-2.93445 z" />
  <path
     style="fill:#6aa84f;fill-rule:evenodd"
     inkscape:connector-curvature="0"
     id="path4761"
     d="m 45.43832,126.37801 v 0 c 0,-1.62065 1.3138,-2.93445 2.93443,-2.93445 h 11.83191 v 0 c 0.77826,0 1.52464,0.30916 2.07497,0.85948 0.55031,0.55031 0.85948,1.2967 0.85948,2.07497 v 11.73741 c 0,1.62065 -1.3138,2.93445 -2.93445,2.93445 H 48.37275 c -1.62063,0 -2.93443,-1.3138 -2.93443,-2.93445 z" />
  <path
     style="fill-rule:evenodd;stroke:#6aa84f;stroke-width:2;stroke-linecap:butt;stroke-linejoin:round"
     inkscape:connector-curvature="0"
     id="path4763"
     d="m 45.43832,126.37801 v 0 c 0,-1.62065 1.3138,-2.93445 2.93443,-2.93445 h 11.83191 v 0 c 0.77826,0 1.52464,0.30916 2.07497,0.85948 0.55031,0.55031 0.85948,1.2967 0.85948,2.07497 v 11.73741 c 0,1.62065 -1.3138,2.93445 -2.93445,2.93445 H 48.37275 c -1.62063,0 -2.93443,-1.3138 -2.93443,-2.93445 z" />
</svg>
